<svg width="100" height="100" viewBox="0 0 100 100" fill="none" xmlns="http://www.w3.org/2000/svg">
<circle cx="50" cy="50" r="50" fill="white"/>
<mask id="path-3-inside-1" fill="white">
<path fill-rule="evenodd" clip-rule="evenodd" d="M50 100C77.6142 100 100 77.6142 100 50C100 22.3858 77.6142 0 50 0V100Z"/>
</mask>
<path fill-rule="evenodd" clip-rule="evenodd" d="M50 100C77.6142 100 100 77.6142 100 50C100 22.3858 77.6142 0 50 0V100Z" fill="black"/>
<path d="M50 100H45V105H50V100ZM50 0V-5H45V0H50ZM95 50C95 74.8528 74.8528 95 50 95V105C80.3757 105 105 80.3757 105 50H95ZM50 5C74.8528 5 95 25.1472 95 50H105C105 19.6243 80.3757 -5 50 -5V5ZM45 0V100H55V0H45Z" fill="white" mask="url(#path-3-inside-1)"/>
</svg>
