<svg width="101" height="101" viewBox="0 0 101 101" fill="none" xmlns="http://www.w3.org/2000/svg">
<rect x="1" width="100" height="100" rx="3" fill="white"/>
<path d="M98.5 7.72765V97.25C98.5 97.5261 98.2761 97.75 98 97.75H8.21474C8.06799 97.75 7.98512 97.7109 7.92988 97.6719C7.86328 97.6249 7.79648 97.547 7.75266 97.441C7.70885 97.335 7.70112 97.2326 7.71512 97.1524C7.72673 97.0858 7.75779 96.9995 7.86171 96.8959L97.647 7.37358C97.7506 7.27025 97.8368 7.23935 97.9035 7.22788C97.9838 7.21405 98.086 7.22197 98.1917 7.26585C98.2974 7.30974 98.3752 7.3765 98.4221 7.44312C98.461 7.49845 98.5 7.5813 98.5 7.72765Z" fill="black" stroke="white" stroke-width="5"/>
<line x1="7" y1="25" x2="45" y2="25" stroke="black" stroke-width="8"/>
<line x1="26" y1="7" x2="26" y2="45" stroke="black" stroke-width="8"/>
<line x1="52" y1="79" x2="87" y2="79" stroke="white" stroke-width="8"/>
</svg>
