<svg width="100" height="100" viewBox="0 0 100 100" fill="none" xmlns="http://www.w3.org/2000/svg">
<path d="M79.5 32C79.5 48.256 66.1052 61.5 49.5 61.5C32.8948 61.5 19.5 48.256 19.5 32C19.5 15.744 32.8948 2.5 49.5 2.5C66.1052 2.5 79.5 15.744 79.5 32Z" stroke="white" stroke-width="5"/>
<path d="M62.5 68C62.5 84.256 49.1052 97.5 32.5 97.5C15.8948 97.5 2.5 84.256 2.5 68C2.5 51.744 15.8948 38.5 32.5 38.5C49.1052 38.5 62.5 51.744 62.5 68Z" stroke="white" stroke-width="5"/>
<path d="M97.5 68C97.5 84.256 84.1052 97.5 67.5 97.5C50.8948 97.5 37.5 84.256 37.5 68C37.5 51.744 50.8948 38.5 67.5 38.5C84.1052 38.5 97.5 51.744 97.5 68Z" stroke="white" stroke-width="5"/>
</svg>
